<?xml version="1.0" encoding="utf-8"?>
<!-- Generator: Adobe Illustrator 12.0.0, SVG Export Plug-In . SVG Version: 6.00 Build 51448)  -->
<!DOCTYPE svg PUBLIC "-//W3C//DTD SVG 1.1//EN" "http://www.w3.org/Graphics/SVG/1.1/DTD/svg11.dtd" [
	<!ENTITY ns_svg "http://www.w3.org/2000/svg">
	<!ENTITY ns_xlink "http://www.w3.org/1999/xlink">
]>
<svg  version="1.1" id="Ebene_1" xmlns="&ns_svg;" xmlns:xlink="&ns_xlink;" width="256" height="256" viewBox="0 0 256 256"
	 overflow="visible" enable-background="new 0 0 256 256" xml:space="preserve">
<path fill="#FFFFFF" d="M90.695,139.016c0,9.889,5.156,13.367,10.475,13.367c4.604,0,8.946-3.063,11.58-7.082
	c0.292,3.422,1.863,7.082,6.592,7.082c1.91,0,4.475-0.564,6.387-4.898c1.213,3.531,4.131,4.898,7.523,4.898
	c2.627,0,5.209-1.684,6.65-5.408c0.613,2.805,2.086,5.408,5.633,5.408c2.029,0,4.799-0.652,6.732-5.787
	c2.061,4.168,5.861,5.787,9.49,5.787c3.797,0,7.34-2.246,9.832-5.412c0.891,2.854,3.199,5.412,8.156,5.412
	c2.48,0,6.324-1.16,8.033-4.176c1.441-1.012,3.014-2.197,4.539-3.73c1.725,5.697,6.172,7.906,10.299,7.906
	c4.238,0,8.109-2.322,8.109-5.799c0-0.381-0.045-0.928-0.078-1.404c-1.475,2.072-3.793,2.797-6.258,2.797
	c-3.318,0-6.102-1.393-6.643-7.49c7.799-0.844,12.516-4.732,12.516-10.115c0-6.117-3.871-7.503-7.646-7.503
	c-8.348,0-11.049,9.667-11.049,16.147c0,1.113,0.084,2.133,0.225,3.086c-0.961,0.76-1.988,1.59-3.086,2.324
	c-0.074-5.914-1.16-8.422-4.787-23.096l-5.865,1.16c-0.545,5.671-2.793,11.424-4.865,17.152c-1.146,0.613-2.068,2.154-2.068,4.162
	c0,0.084,0.008,0.17,0.008,0.256c-1.859,2.631-4.258,3.916-7.447,3.916c-3.777,0-6.82-1.695-6.82-9.811
	c0-5.482,1.26-12.275,5.432-12.275c2.014,0,3.164,1.31,3.164,3.09c0,1.078-0.314,2.469-1,3.012c0.539,0.768,1.23,1.229,2.16,1.229
	c1.512,0,2.246-1.541,2.246-3.447c0-4.504-2.574-6.905-7.414-6.905c-8.73,0-10.738,9.661-10.738,16.075
	c0,1.514,0.146,2.857,0.389,4.078c-0.877,3.283-2.213,4.955-3.863,4.955c-2.479,0-2.566-3.711-2.566-5.172v-19.691h-5.775v18.615
	c0,3.928-2.32,6.248-4.559,6.248c-2.006,0-3.465-1.416-3.465-5.172v-19.691h-5.749v19.033c-0.862,3.855-2.284,5.83-4.07,5.83
	c-2.474,0-2.602-3.711-2.602-5.172v-31.229l-5.757,0.794v29.358c-2.047,4.475-5.512,6.248-9.149,6.248
	c-3.3,0-6.082-1.393-6.657-7.49c7.815-0.844,12.557-4.732,12.557-10.115c0-6.117-3.873-7.503-7.703-7.503
	C93.434,122.868,90.695,132.535,90.695,139.016z M203.693,125.658c1.854,0,2.861,1.234,2.861,4.115c0,4.367-3.465,7.586-8.887,8.479
	C197.668,132.535,199.643,125.658,203.693,125.658z M175.969,139.793c1.156-4.172,2.934-7.957,3.398-12.281
	c2.104,10.08,3.242,11.736,3.242,16.52c0,2.785-1.621,4.023-4.092,4.023c-2.549,0-4.094-1.541-4.635-4.254
	c0.459,0.545,0.924,0.775,1.539,0.775c0.93,0,1.855-0.775,1.855-2.232C177.277,141.039,176.66,140.256,175.969,139.793z
	 M102.85,125.658c1.853,0,2.893,1.234,2.893,4.115c0,4.367-3.463,7.586-8.908,8.479C96.834,132.535,98.807,125.658,102.85,125.658z"
	/>
<path fill="#FFFFFF" d="M61.924,114.996v37.082h6.219v-2.633c3.092,2.318,5.68,3.326,7.998,3.326
	c6.409,0,11.086-11.039,11.086-21.938c0-11.212-5.256-22.166-20.009-22.166c-10.388,0-18.268,6.424-18.268,13.589
	c0,5.101,2.896,7.058,7.571,7.058c-0.92-0.645-3.168-2.114-3.168-6.594c0-7.494,6.063-11.973,13.059-11.973
	c10.076,0,13.936,5.865,13.936,20.16c0,8.34-2.201,18.156-8.147,18.156c-1.2,0-2.591-0.432-4.058-1.555v-33.38L61.924,114.996z"/>
<path fill="#FFFFFF" d="M222.379,127.093c0.385,0.386,0.811,0.73,1.264,1.033c-0.168-1.58-0.344-3.228-0.58-4.103
	c0.268-4.787,0.723-7.408-0.807-14.201c-0.412-1.825-1.254-4.367-2.291-7.108v18.554
	C219.965,123.548,220.881,125.604,222.379,127.093z"/>
<path fill="#FFFFFF" d="M255.533,222.047c-0.924-20.803-3.133-60.543-6.1-91.215V4.236c0-1.824-1.164-3.428-2.879-4.013h-0.01
	C246.105,0.075,245.654,0,245.207,0c-1.299,0-2.564,0.598-3.379,1.68c-15.988,21.08-24.643,46.803-24.643,73.258v2.06
	c0.99,1.61,1.922,3.219,2.779,4.796v-6.855c0-25.848,8.457-50.987,24.074-71.584c0.275-0.367,0.719-0.575,1.168-0.575
	c0.148,0,0.307,0.025,0.457,0.075c0.6,0.199,0.998,0.757,0.998,1.383v126.719l0.008,0.066c1.973,20.381,3.611,44.863,4.762,65.078
	c0.572,10.104,1.021,19.139,1.332,26.072c0.299,6.914,0.465,11.76,0.465,13.363c0,4.986-1.539,9.473-3.961,12.65
	c-1.207,1.6-2.629,2.855-4.178,3.721c-1.539,0.857-3.205,1.324-4.961,1.324c-1.746,0-3.412-0.467-4.959-1.324
	c-2.322-1.289-4.361-3.496-5.816-6.332c-1.459-2.84-2.322-6.301-2.322-10.039c0-1.604,0.158-6.449,0.465-13.363
	c0.926-20.781,3.137-60.559,6.094-91.15l0.148-1.516h-5.535c-0.852,0-1.672-0.129-2.441-0.367c-0.398,1.061-0.818,1.904-1.24,2.494
	c1.152,0.41,2.389,0.645,3.682,0.645h2.484c-1.916,20.141-3.512,43.932-4.631,63.664c-0.574,10.119-1.021,19.164-1.33,26.105
	c-0.309,6.949-0.467,11.758-0.467,13.488c0,5.561,1.697,10.613,4.518,14.332c1.416,1.865,3.121,3.387,5.037,4.461
	c1.922,1.072,4.068,1.672,6.314,1.672c2.248,0,4.395-0.6,6.318-1.672c2.877-1.607,5.258-4.238,6.932-7.49
	c1.664-3.254,2.621-7.131,2.621-11.303C256,233.805,255.832,228.996,255.533,222.047z"/>
<path fill="#FFFFFF" d="M56.741,5.974C56.533,2.614,53.755,0,50.395,0c-3.537,0-6.358,2.865-6.367,6.355
	c0,0.106,0.009,0.211,0.009,0.314l2.705,54.418h-0.005c0,1.133-0.453,2.143-1.192,2.891c-0.75,0.742-1.76,1.201-2.899,1.201
	c-1.133,0-2.143-0.459-2.893-1.201c-0.74-0.748-1.202-1.758-1.202-2.891V61.07L37.201,6.592C37.114,2.926,34.109,0,30.452,0
	c-3.675,0-6.67,2.926-6.757,6.584L22.336,61.07v0.018c0,1.133-0.452,2.143-1.193,2.891c-0.748,0.742-1.759,1.201-2.898,1.201
	c-1.133,0-2.143-0.459-2.891-1.201c-0.729-0.736-1.188-1.726-1.203-2.836L16.85,6.67c0.01-0.104,0.01-0.208,0.01-0.314
	c0-3.49-2.83-6.355-6.358-6.355c-3.36,0-6.138,2.614-6.347,5.965L0,73.95v0.044c0,11.049,5.887,20.724,14.689,26.053
	c4.504,2.727,7.203,7.602,7.203,12.784c0,0.55-0.035,1.097-0.096,1.646c-2.369,21.398-4.363,49.498-5.757,73.209
	c-0.696,11.861-1.245,22.623-1.629,30.896c-0.374,8.281-0.574,14.037-0.574,16.004c0,5.818,1.776,11.096,4.738,14.996
	c1.471,1.953,3.257,3.545,5.267,4.668c2.004,1.125,4.25,1.75,6.602,1.75c2.351,0,4.598-0.625,6.609-1.75
	c3.014-1.682,5.504-4.432,7.254-7.836c1.741-3.406,2.752-7.465,2.752-11.828c0-1.967-0.209-7.723-0.584-16.004
	c-0.396-8.766-0.99-20.328-1.748-33.02c-1.345-2.434-2.557-4.887-3.326-6.859c0.193,3.107,0.379,6.168,0.556,9.156
	c0.696,11.844,1.245,22.598,1.619,30.854c0.375,8.254,0.575,14.045,0.575,15.873c0.008,5.219-1.611,9.91-4.146,13.238
	c-1.263,1.67-2.752,2.988-4.362,3.891c-1.619,0.898-3.361,1.387-5.199,1.387c-1.828,0-3.569-0.488-5.19-1.387
	c-2.429-1.348-4.563-3.656-6.087-6.625c-1.523-2.971-2.429-6.594-2.429-10.504c0-1.828,0.2-7.619,0.573-15.873
	c1.133-24.775,3.823-71.973,7.377-103.915c0.069-0.661,0.104-1.313,0.104-1.967c0-6.192-3.222-12.008-8.595-15.267
	C8.24,92.745,2.927,84.035,2.9,74.07L7.054,6.148C7.167,4.319,8.673,2.9,10.501,2.9c0.967,0,1.821,0.392,2.448,1.018
	c0.627,0.636,1.01,1.49,1.01,2.438L13.95,6.531l-2.699,54.521v0.036c0,3.857,3.135,6.992,6.993,6.992c3.854,0,6.982-3.116,7-6.958
	h0.001l1.35-54.46c0.052-2.09,1.759-3.762,3.857-3.762c2.09,0,3.797,1.672,3.849,3.762l1.35,54.46
	c0.02,3.842,3.146,6.958,6.994,6.958c3.865,0,7-3.135,7-6.992v-0.036L46.936,6.531V6.355c0-0.947,0.385-1.802,1.01-2.438
	C48.574,3.292,49.427,2.9,50.395,2.9c1.819,0,3.334,1.429,3.447,3.248l3.334,54.525c0.895-1.078,1.801-2.102,2.721-3.072
	L56.741,5.974z"/>
<path fill="#FFFFFF" d="M43.959,173.238c-0.879-1.73-1.73-3.393-2.561-4.941c0.748,2.875,1.642,5.799,2.697,8.623
	c-1.213-2.01-2.275-4.174-3.225-6.416c0.132,1.996,0.261,3.979,0.386,5.949c0.882,1.783,2.085,3.98,3.292,6.168
	C44.361,179.543,44.165,176.41,43.959,173.238z"/>
<path fill="#FFFFFF" d="M86.996,39.637c1.266,0,7.306-2.492,11.156-3.805c2.02-1.021,2.414-1.45,1.82-1.45
	c-1.713,0-11.533,3.334-14.246,4.944h1.098C86.664,39.557,86.758,39.637,86.996,39.637z"/>
<path fill="#FFFFFF" d="M102.162,45.227c-2.928,0.766-5.414,2.149-5.154,2.491c1.282-0.571,3.326-1.149,4.813-1.483l-1.324,0.298
	c-0.12,0.014-0.214,0.021-0.273,0.021C99.244,46.553,101.662,45.672,102.162,45.227z"/>
<path fill="#FFFFFF" d="M31.514,145.641c0.078,0,0.181,0.117,0.311,0.313c-1.192-16.835-3.364-7.973-2.444-25.911
	c-3.815,15.294,1.584,35.718,6.44,51.03c1.542,3.5,2.604,4.928,2.988,4.928c0.252,0,0.176-0.768-0.343-2.068
	c-2.088-4.416-4.088-10.777-5.942-15.992C31.189,152.953,30.736,145.641,31.514,145.641z"/>
<path fill="#FFFFFF" d="M49.16,192.793c0.035,0.227,0.318,0.688,1.264,1.742C50.052,194.074,49.62,193.48,49.16,192.793z"/>
<path fill="#FFFFFF" d="M49.16,192.793c-0.055-0.232,0.256-0.229,0.006-0.615c0.352-0.605-2.132-5.053-4.617-9.557
	c-1.207-2.188-2.41-4.385-3.292-6.168c-0.243-0.492-0.465-0.953-0.651-1.373c-0.184,0.662,0.152,1.977,0.795,3.623
	c0.77,1.973,1.981,4.426,3.326,6.859C46.209,188.246,47.838,190.891,49.16,192.793z"/>
<path fill="#FFFFFF" d="M46.057,180.195c-0.074,0-0.117,0.09-0.125,0.209c0.803,2.475,2.998,5.717,4.996,8.039
	c-0.504-0.943-1.078-1.863-1.546-2.848C48.561,184.465,46.609,180.195,46.057,180.195z"/>
<path fill="#FFFFFF" d="M76.876,216.25c-1.828-1.143-3.592-2.301-5.328-3.57l0.906,2.293c1.548,1.074,3.212,1.98,4.796,3.027
	c-2.162-1.441-2.734-1.904-2.544-1.904c0.216,0,1.086,0.391,1.96,0.844c0.9,0.422,1.807,0.816,2.023,0.816
	C78.902,217.756,78.486,217.4,76.876,216.25z"/>
<path fill="#FFFFFF" d="M93.318,226.293l2.304,0.316c-3.798-1.664-6.034-2.539-8.29-3.238
	C90.275,224.727,91.768,225.91,93.318,226.293z"/>
<path fill="#FFFFFF" d="M79.387,215.633c-0.555-0.303-0.849-0.443-0.937-0.443c-0.522,0,4.313,3.615,5.642,3.82
	C82.016,217.629,82.882,217.275,79.387,215.633z"/>
<path fill="#FFFFFF" d="M116.572,220.621c-7.162-1.375-9.916-1.557-16.2-3.221c5.433,1.609,11.166,3.293,14.808,3.293
	C115.689,220.693,116.15,220.648,116.572,220.621z"/>
<path fill="#FFFFFF" d="M164.91,35.193c-2.617-0.697-5.26-1.334-7.871-1.836c3.209,1.25,7.102,2.266,9.438,2.851L164.91,35.193z"/>
<path fill="#FFFFFF" d="M107.006,32.564c0.62,0,1.936-0.244,3.654-0.486c1.756-0.23,3.912-0.46,6.188-0.46c0.19,0,0.34,0,0.492,0
	c5.631-0.579,11.462-1.15,17.223-1.15c3.51,0,6.984,0.226,10.373,0.701c1.869,0.054,3.727,0.188,5.604,0.271
	c-5.428-1.547-13.371-2.5-21.501-2.5c-7.574,0-15.328,0.83-21.435,2.719C106.536,32.336,106.434,32.564,107.006,32.564z"/>
<path fill="#FFFFFF" d="M41.398,168.297c0.83,1.549,1.682,3.211,2.561,4.941c4.305,8.455,9.323,18.576,16.243,25.688
	c-1.034-0.762-2.07-1.461-3.036-2.227c4.557,5.367,10.166,11.787,12.574,11.961c-3.67-3.137-4.629-4.596-8.154-7.588
	c-0.034-0.215-0.004-0.232,0.082-0.232c0.462,0,2.582,1.84,3.172,2.072c4.563,4.291,11.605,8.934,15.486,12.031
	c3.682,1.996,13.99,6.596,15.976,6.596c0.498,0,0.468-0.246-0.399-1.016c9.611,4.082,21.916,6.537,34.281,6.537
	c9.438,0,18.938-1.4,27.291-4.6c0.133,0.023,0.307,0.047,0.535,0.047c2.416,0,7.902-2.395,10.119-3.031
	c-0.365,0.377-0.314,0.469,0,0.469c0.461,0,1.77-0.363,3.016-0.723c1.316-0.443,2.549-0.818,3.041-0.818h0.025
	c23.367-13.15,44.23-37.99,48.66-65.404c0.459-8.133,1.197-13.457,1.1-21.016c-1.232,10.316-4.695,26.908-12.285,40.645
	c-0.77,2.375-0.908,3.314-0.678,3.314c0.441,0,2.338-3.561,4.08-7.072c1.73-3.451,3.313-6.863,3.381-7.074
	c0.033-0.057,0.049-0.057,0.094-0.057c0.398,0-0.752,3.221-1.629,5.795c-2.709,6.227-6.838,11.797-7.869,11.797
	c-0.033,0-0.066-0.006-0.092-0.014c-0.406,1.357-0.926,2.668-1.408,4.041c-7.947,11.961-19.818,22.377-35.072,30.141
	c3.904-3.137,5.75-4.148,12.197-8.16c1.611-2.195,2.158-3.018,1.889-3.018c-0.49,0-3.559,2.82-7.225,5.635
	c-3.658,2.775-7.912,5.545-10.629,5.545c-0.053,0-0.104,0-0.135-0.002c1.152,0.242-6.207,3.67-10.447,4.854
	c1.248-0.207,2.621-0.354,3.877-0.639c1.734-0.895,3.408-1.695,5.045-2.742c2.779-1.137,4.184-1.564,4.74-1.564
	c1.578,0-4.766,3.963-5.098,4.449c-15.467,5.9-17.254,3.385-35.297,5.014c-0.539,0.695,2.451,0.57,1.156,1.199
	c-3.414,0.23-4.152,0.689-6.756,0.689c-1.272,0-2.988-0.1-5.748-0.434c-8.283-2.053-15.586-1.313-24.748-5.775
	c-0.676-0.564-0.658-0.766-0.217-0.766c0.754,0,2.678,0.535,4.616,1.131c1.927,0.555,3.845,1.127,4.618,1.127
	c0.314,0,0.412-0.113,0.238-0.344c-1.446-0.553-2.844-1.242-4.223-1.898c-4.926-1.551-10.688-5.547-14.68-6.725l0.145-0.576
	c-6.664-2.76-15.721-10.49-19.24-12.775c-9.834-10.016-18.334-22.814-23.456-36.932c-1.8-4.961-3.183-10.086-4.058-15.309
	c-0.713-4.246-1.095-8.553-1.089-12.895c0-0.057-0.002-0.111-0.002-0.168c0.29-1.574,0.698-3.143,1.04-4.721
	c0.393-3.34,0.598-5.694,0.698-7.443c0.319-5.588-0.463-4.932,0.124-9.935c0.523-1.482,0.836-0.776,1.326-1.487
	c0.457-2.078,0.529-2.763,0.426-2.763c-0.1,0-0.364,0.651-0.664,1.333c-0.268,0.65-0.566,1.3-0.67,1.3
	c-0.059,0-0.059-0.149-0.008-0.554c0.215-0.875,0.453-1.777,0.712-2.694c0.634-2.256,1.388-4.599,2.215-6.841
	c1.63-4.415,3.549-8.439,5.435-10.61l-0.481-3.034c-3.61,4.266-6.736,8.016-7.935,8.016c-0.226,0-0.359-0.104-0.455-0.328
	c-9.429,16.244-8.918,33.895-7.482,54.82c0.191,4.943,3.016,15.092,4.148,15.203c1.493-0.176-3.574-14.051-3.438-23.023
	c1.604,7.811,3.432,20.264,7.913,30.844c0.949,2.242,2.012,4.406,3.225,6.416C43.04,174.096,42.146,171.172,41.398,168.297z
	 M32.992,119.314c-0.574-3.746,0.527-4.735,2.368-12.412c-0.23,1.51-0.337,3.05-0.464,4.547c0.693-1.814,1.365-3.619,2.189-5.371
	C35.17,114.361,33.806,110.782,32.992,119.314z M37.286,150.699c0.832,2.883,1.512,5.844,2.903,10.184
	C39.072,158.117,37.64,154.676,37.286,150.699z"/>
<path fill="#FFFFFF" d="M223.789,89.07c-0.303-0.524-0.568-0.965-0.656-0.965c-0.008,0-0.008,0.002-0.016,0.004
	c-0.906-1.998-1.963-4.127-3.152-6.316c-0.857-1.577-1.789-3.186-2.779-4.796c-4.857-7.904-11.24-15.894-18.463-20.769
	c3.988,4.266,4.033,4.485,9.727,11.567c-5.574-4.151-9.188-10.53-15.707-15.644c1.379,1.262,1.84,1.775,1.607,1.775
	c-0.467,0-5.162-3.228-8.57-5.402c-8.49-6.553-24.467-13.569-38.998-15.655c-3.285-0.654-10.76-1.103-16.496-1.103
	c-4.997,0-8.721,0.344-7.26,1.229c-8.717,0.922-10.117-0.021-16.709,1.05c-16.75,6.167-32.94,9.32-46.42,23.556
	c-0.92,0.971-1.826,1.994-2.721,3.072c-0.076,0.092-0.154,0.178-0.23,0.27c0.019-0.18-0.049-0.238-0.153-0.238
	c-1.019-0.001-7.147,6.814-9.349,9.915c-5.666,6.426-13.569,23.733-11.865,23.733c0.128,0,0.357-0.149,0.695-0.434
	c3.227-5.193,7.34-17.222,14.311-23.874c2.168-2.063,3.178-2.89,3.408-2.89c0.374,0-1.51,2.455-3.807,5.603
	c-3.67,4.978-7.527,12.231-6.828,12.757c0.858-2.029,2.44-2.548,5.471-7.756c-1.71,3.029-2.082,4.016-1.796,4.016
	c0.288,0,1.208-0.938,2.128-1.914c0.922-0.975,1.867-1.916,2.186-1.916c0.23,0,0.129,0.463-0.459,1.697
	c3.123-3.83,5.273-6.351,6.952-8.129c1.063-1.127,1.938-1.957,2.747-2.623c2.146-1.772,3.836-2.425,7.436-4.601
	c6.994-6.519,4.23-5.763,5.881-8.174c8.033-6.864,16.373-8.938,24.543-12.39c-1.213,1.002-1.174,1.394-0.243,1.394
	c1.612,0,5.868-1.179,10.764-2.345c4.886-1.149,10.423-2.336,14.544-2.336h0.036c10.63-0.121,7.274-1.84,12.616-1.84
	c1.381,0,3.35,0.118,6.328,0.391c6.881,1.889-14.594,0.199-5.387,2.406c0.361,0,0.666-0.004,1.018-0.004
	c1.828,0,3.65,0.115,5.492,0.195c2.785-0.191,5.283-0.54,8.16-0.54c1.449,0,3.016,0.101,4.818,0.349
	c2.918,0.802,7.209,2.393,7.17,2.819c-1.645-0.462-2.75-0.667-3.223-0.667c-1.328,0,0.586,1.268,4.475,3.245
	c2.807,0.696,3.473,0.968,4.924,1.154c-2.268-1.722-2.875-2.412-2.438-2.412c1.551,0,15.973,8.425,21.521,12.302
	c10.502,7.278,11.789,10.928,13.275,13.846c1.246,3.203,2.754,5.945,9.305,16.219c-0.223-1.196-0.141-1.711,0.127-1.711
	c0.762,0,3.131,4.479,5.457,9.75c0.975,2.209,1.939,4.555,2.779,6.772c1.037,2.741,1.879,5.283,2.291,7.108
	c1.529,6.793,1.074,9.414,0.807,14.201c0.236,0.875,0.412,2.522,0.58,4.103c0.143,1.333,0.279,2.618,0.443,3.349
	c0.053,0.229,0.105,0.404,0.164,0.51c0.09-0.105,0.182-0.223,0.271-0.352c0.422-0.59,0.842-1.434,1.24-2.494
	C228.217,122.559,229.686,107.404,223.789,89.07z"/>
</svg>
